PathFileType	4	(X/Y/Z)	/home/nbianco/projects/addbio/data/HamnerRunning2013/Processed/subject17//results/MarkerData/run500.trc
DataRate	CameraRate	NumFrames	NumMarkers	Units	OrigDataRate	OrigDataStartFrame	OrigNumFrames
120.005	120.005	10	41	m	120.005	0	238
Frame#	Time	C7			CLAV			LACR			LASI			LCAL			LFAradius			LFAsuperior			LFAulna			LLEL			LMEL			LMT5			LPSI			LTB1			LTB2			LTB3			LTH1			LTH2			LTH3			LTOE			LUA1			LUA2			LUA3			RACR			RASI			RCAL			RFAradius			RFAsuperior			RFAulna			RLEL			RMEL			RMT5			RPSI			RTB1			RTB2			RTB3			RTH1			RTH3			RTOE			RUA1			RUA2			RUA3		
		X1	Y1	Z1	X2	Y2	Z2	X3	Y3	Z3	X4	Y4	Z4	X5	Y5	Z5	X6	Y6	Z6	X7	Y7	Z7	X8	Y8	Z8	X9	Y9	Z9	X10	Y10	Z10	X11	Y11	Z11	X12	Y12	Z12	X13	Y13	Z13	X14	Y14	Z14	X15	Y15	Z15	X16	Y16	Z16	X17	Y17	Z17	X18	Y18	Z18	X19	Y19	Z19	X20	Y20	Z20	X21	Y21	Z21	X22	Y22	Z22	X23	Y23	Z23	X24	Y24	Z24	X25	Y25	Z25	X26	Y26	Z26	X27	Y27	Z27	X28	Y28	Z28	X29	Y29	Z29	X30	Y30	Z30	X31	Y31	Z31	X32	Y32	Z32	X33	Y33	Z33	X34	Y34	Z34	X35	Y35	Z35	X36	Y36	Z36	X37	Y37	Z37	X38	Y38	Z38	X39	Y39	Z39	X40	Y40	Z40	X41	Y41	Z41

1	0.25	0.934225	1.51315	-0.349122	1.04093	1.46029	-0.268447	1.0685	1.46983	-0.490514	1.05817	0.997663	-0.429528	0.361578	0.578446	-0.39269	1.12622	1.18707	-0.410201	1.10404	1.16487	-0.535781	1.16197	1.13824	-0.446011	1.01891	1.18702	-0.633375	0.943697	1.18263	-0.585444	0.26701	0.399697	-0.438099	0.894408	1.05332	-0.37806	0.655045	0.484031	-0.384174	0.577705	0.53236	-0.45157	0.483155	0.483074	-0.39303	0.951235	0.819501	-0.492802	0.939904	0.701288	-0.458892	0.819218	0.635298	-0.453189	0.300264	0.38348	-0.355273	1.04661	1.34533	-0.571306	0.984105	1.30299	-0.599339	1.05555	1.26202	-0.600188	0.915972	1.47472	-0.137379	1.03784	1.0054	-0.206048	1.23696	0.115789	-0.306283	0.743714	1.06599	-0.119295	0.704705	1.18274	-0.0871548	0.687789	1.05565	-0.0781886	0.660294	1.30334	-0.109817	0.661822	1.28204	-0.191197	1.42335	0.176049	-0.256151	0.873046	1.04601	-0.282502	1.27533	0.44128	-0.295183	1.26252	0.37282	-0.231325	1.28685	0.318908	-0.302689	1.01321	0.846123	-0.144581	1.14694	0.625137	-0.21225	1.42454	0.206948	-0.347562	0.800661	1.39037	-0.113022	0.758119	1.40659	-0.174943	0.724879	1.34482	-0.109849
2	0.258333	0.934939	1.50975	-0.348146	1.04185	1.45575	-0.268486	1.06801	1.46529	-0.490768	1.05862	0.994264	-0.428776	0.382519	0.599977	-0.389402	1.12422	1.17742	-0.41077	1.09909	1.15742	-0.53641	1.15761	1.12771	-0.44758	1.01293	1.18257	-0.632298	0.938066	1.17943	-0.583217	0.276052	0.431201	-0.444321	0.894053	1.04818	-0.379906	0.666634	0.480589	-0.388124	0.593114	0.536059	-0.453014	0.495549	0.495112	-0.39407	0.955888	0.813845	-0.493786	0.946108	0.69594	-0.462448	0.82805	0.626826	-0.455243	0.306031	0.408584	-0.362088	1.04312	1.34164	-0.571066	0.979895	1.29958	-0.597593	1.05058	1.25727	-0.598892	0.918231	1.46999	-0.1362	1.03547	1.00169	-0.205736	1.22601	0.1058	-0.311619	0.752344	1.05897	-0.117048	0.7112	1.17462	-0.0844968	0.696838	1.04728	-0.0757825	0.664574	1.29459	-0.106612	0.665887	1.27329	-0.187994	1.41278	0.164753	-0.257979	0.871208	1.04095	-0.283828	1.26645	0.431819	-0.296088	1.2521	0.362968	-0.232794	1.27748	0.309624	-0.304512	1.00858	0.838427	-0.145583	1.14091	0.617998	-0.212687	1.41462	0.198304	-0.348579	0.803529	1.38405	-0.111164	0.760235	1.40002	-0.172435	0.728494	1.33713	-0.106993
3	0.266667	0.935714	1.50567	-0.347039	1.04282	1.45042	-0.268457	1.0674	1.45994	-0.491189	1.05866	0.99019	-0.428233	0.406406	0.618237	-0.386055	1.12186	1.16661	-0.411832	1.09337	1.14902	-0.537152	1.15251	1.11608	-0.44971	1.00611	1.17754	-0.631157	0.931716	1.1757	-0.580742	0.29012	0.459577	-0.450073	0.893502	1.04186	-0.381839	0.680341	0.476524	-0.391854	0.610393	0.538086	-0.454983	0.510964	0.505549	-0.394798	0.959168	0.807703	-0.494992	0.952283	0.689952	-0.466153	0.837513	0.617428	-0.457563	0.316185	0.431356	-0.36837	1.03949	1.33689	-0.570843	0.975241	1.29554	-0.595879	1.04496	1.25165	-0.59732	0.920746	1.46415	-0.134685	1.03279	0.996544	-0.205379	1.20972	0.0972666	-0.316721	0.762102	1.05114	-0.114769	0.718647	1.1655	-0.0813781	0.707261	1.03796	-0.073044	0.669379	1.28456	-0.10258	0.670083	1.26349	-0.183995	1.3972	0.149649	-0.259663	0.86953	1.03521	-0.285305	1.25608	0.420675	-0.296414	1.23849	0.351452	-0.234036	1.26527	0.298536	-0.306009	1.00436	0.831206	-0.14709	1.1348	0.610446	-0.213754	1.40059	0.185402	-0.349508	0.806834	1.37641	-0.108821	0.762143	1.39228	-0.168912	0.732518	1.3281	-0.103565
4	0.275	0.936478	1.50085	-0.345782	1.04381	1.44432	-0.268371	1.06652	1.45386	-0.491793	1.05827	0.985399	-0.428011	0.432566	0.633326	-0.382946	1.11896	1.15463	-0.413364	1.08688	1.13968	-0.537979	1.14667	1.10345	-0.452413	0.998485	1.17194	-0.629975	0.924707	1.17151	-0.578053	0.308787	0.484306	-0.455292	0.892623	1.03432	-0.383681	0.69595	0.471913	-0.395378	0.62941	0.53864	-0.45738	0.529121	0.514167	-0.395431	0.961376	0.800956	-0.496411	0.958707	0.683321	-0.46996	0.847782	0.607127	-0.460167	0.330722	0.451442	-0.374074	1.0357	1.33099	-0.57067	0.970164	1.29083	-0.594279	1.03868	1.2451	-0.595531	0.923536	1.4573	-0.132783	1.0299	0.990267	-0.204983	1.18855	0.0913875	-0.321589	0.772989	1.04257	-0.112548	0.72709	1.15547	-0.0778518	0.719056	1.02779	-0.0700704	0.674788	1.27333	-0.0977368	0.674497	1.25274	-0.179249	1.37698	0.130884	-0.261649	0.868002	1.02875	-0.286909	1.24443	0.408077	-0.296533	1.22223	0.338556	-0.235566	1.25047	0.285844	-0.307561	1.00067	0.824437	-0.148802	1.12793	0.602018	-0.215413	1.3829	0.167436	-0.35105	0.810607	1.36751	-0.105933	0.763938	1.38342	-0.164382	0.737057	1.31774	-0.0995794
5	0.283333	0.937102	1.49525	-0.344366	1.04483	1.43753	-0.268268	1.06513	1.4472	-0.492616	1.05743	0.979817	-0.428194	0.460202	0.645415	-0.380465	1.11531	1.14152	-0.41535	1.07963	1.12948	-0.538986	1.14003	1.08993	-0.455682	0.990124	1.16582	-0.628781	0.917148	1.1669	-0.575266	0.331347	0.504755	-0.459942	0.891117	1.0257	-0.385252	0.713159	0.466757	-0.398819	0.650005	0.537889	-0.460048	0.549586	0.520635	-0.396314	0.963088	0.79348	-0.497977	0.965679	0.67604	-0.47384	0.859092	0.595956	-0.463094	0.349412	0.468365	-0.379114	1.03161	1.3239	-0.570597	0.964671	1.2854	-0.59291	1.03169	1.23758	-0.593577	0.926593	1.44962	-0.130445	1.02691	0.983305	-0.204632	1.16319	0.0892355	-0.326379	0.784995	1.03334	-0.110479	0.736564	1.14463	-0.0739961	0.732205	1.01689	-0.0670179	0.680899	1.26103	-0.0921279	0.679263	1.24114	-0.173801	1.35252	0.109861	-0.264378	0.866492	1.02151	-0.288601	1.23209	0.394949	-0.297056	1.20453	0.325281	-0.238049	1.23359	0.272451	-0.309776	0.99744	0.817864	-0.150223	1.11976	0.592669	-0.217479	1.3619	0.144581	-0.354015	0.814881	1.35744	-0.102416	0.765808	1.37345	-0.158899	0.742245	1.30613	-0.0950229
6	0.291667	0.937455	1.48894	-0.342799	1.04587	1.43027	-0.268226	1.06301	1.44019	-0.493697	1.05606	0.973425	-0.428731	0.488829	0.654594	-0.378905	1.11074	1.1274	-0.417827	1.07164	1.11861	-0.540411	1.13259	1.07562	-0.459509	0.981096	1.15926	-0.627555	0.909178	1.16188	-0.572531	0.357001	0.520479	-0.464058	0.888625	1.01632	-0.386523	0.731829	0.460994	-0.402267	0.672033	0.535833	-0.46289	0.571956	0.524712	-0.397703	0.964967	0.785318	-0.499524	0.973369	0.668156	-0.477718	0.871661	0.584034	-0.466363	0.37168	0.481732	-0.383379	1.02693	1.31586	-0.570661	0.95873	1.27923	-0.59187	1.02391	1.2291	-0.591446	0.929881	1.44129	-0.127663	1.02374	0.975972	-0.204544	1.13424	0.0905738	-0.331243	0.798106	1.02361	-0.108613	0.747062	1.13308	-0.0698814	0.746683	1.00539	-0.0640545	0.687794	1.24774	-0.085821	0.684508	1.22872	-0.167662	1.32409	0.0896515	-0.267829	0.864612	1.01365	-0.290337	1.21972	0.382924	-0.298548	1.18703	0.31337	-0.241682	1.21517	0.260098	-0.313055	0.994355	0.811226	-0.150932	1.11071	0.58327	-0.219559	1.33736	0.119563	-0.358526	0.819706	1.34632	-0.0982469	0.767987	1.36238	-0.152536	0.748167	1.29336	-0.0898594
7	0.3	0.937504	1.48224	-0.341081	1.04696	1.42286	-0.268329	1.0601	1.4331	-0.495045	1.05403	0.966354	-0.429433	0.51819	0.660832	-0.378423	1.10528	1.11245	-0.420875	1.06293	1.10728	-0.542451	1.12431	1.06063	-0.463914	0.971475	1.15243	-0.626223	0.900931	1.1565	-0.569939	0.384943	0.531222	-0.467728	0.884975	1.00673	-0.387634	0.752086	0.454653	-0.405597	0.695372	0.532377	-0.465905	0.595935	0.526363	-0.399611	0.967611	0.77678	-0.500817	0.981959	0.659912	-0.481388	0.885672	0.571745	-0.469923	0.396714	0.491267	-0.3868	1.0214	1.30741	-0.570842	0.95226	1.27236	-0.591166	1.01537	1.21992	-0.589123	0.933387	1.4325	-0.124483	1.02011	0.968486	-0.204903	1.10214	0.0940241	-0.336014	0.812312	1.01364	-0.106974	0.758587	1.12091	-0.0655663	0.762484	0.993504	-0.0613232	0.695562	1.23356	-0.078903	0.690347	1.21555	-0.16083	1.29185	0.0738142	-0.27147	0.861797	1.00567	-0.292093	1.2075	0.373673	-0.301222	1.17095	0.304698	-0.245873	1.19547	0.25074	-0.317194	0.99087	0.804675	-0.150818	1.10208	0.57517	-0.221058	1.30865	0.0970177	-0.363779	0.825218	1.33427	-0.0935549	0.77073	1.35019	-0.145335	0.754875	1.27954	-0.0840955
8	0.308333	0.937367	1.4757	-0.339201	1.04811	1.41573	-0.268631	1.05654	1.42625	-0.496595	1.05121	0.958902	-0.430018	0.547951	0.664096	-0.379069	1.09901	1.09679	-0.424535	1.05347	1.09569	-0.545062	1.11518	1.04516	-0.468944	0.961345	1.14559	-0.624702	0.892511	1.1509	-0.567468	0.414435	0.536813	-0.471031	0.880425	0.997637	-0.388825	0.774225	0.447944	-0.408486	0.719971	0.527498	-0.469119	0.621352	0.52574	-0.401836	0.97149	0.768396	-0.501658	0.991771	0.651888	-0.484548	0.901271	0.559833	-0.47364	0.42369	0.496783	-0.389419	1.01491	1.29934	-0.571047	0.945174	1.26511	-0.590626	1.00626	1.21062	-0.586719	0.93714	1.42347	-0.121038	1.01573	0.96117	-0.205601	1.06729	0.0979699	-0.340164	0.827607	1.00379	-0.105614	0.771219	1.10826	-0.0611234	0.779659	0.981518	-0.0588973	0.70435	1.21865	-0.0714836	0.696901	1.20171	-0.153317	1.25618	0.0644213	-0.274555	0.85769	0.998359	-0.293869	1.19491	0.367879	-0.304676	1.15612	0.300219	-0.249467	1.1744	0.245384	-0.321343	0.986397	0.798815	-0.150156	1.09504	0.569258	-0.221382	1.27538	0.0810143	-0.368458	0.831645	1.32146	-0.0886727	0.774299	1.33703	-0.137352	0.762449	1.26496	-0.0778661
9	0.316667	0.937255	1.46994	-0.337198	1.04929	1.40922	-0.269143	1.05268	1.41996	-0.498202	1.04762	0.951463	-0.430193	0.577501	0.664502	-0.380788	1.09195	1.08058	-0.428719	1.04323	1.08413	-0.54797	1.10509	1.02951	-0.474614	0.950824	1.13914	-0.62299	0.88398	1.14546	-0.56501	0.444892	0.53713	-0.473995	0.875642	0.989879	-0.390295	0.798508	0.441192	-0.410625	0.745867	0.521382	-0.472465	0.6481	0.523075	-0.404109	0.97685	0.760788	-0.501991	1.00318	0.644975	-0.486965	0.918569	0.549242	-0.477296	0.451975	0.498167	-0.391376	1.0076	1.29241	-0.571151	0.937451	1.25811	-0.589863	0.996961	1.20218	-0.584544	0.941176	1.41455	-0.117587	1.01059	0.954564	-0.206184	1.03019	0.101277	-0.343123	0.843995	0.994462	-0.10464	0.785146	1.0954	-0.0566795	0.798316	0.969869	-0.0567678	0.714374	1.20331	-0.0637144	0.704304	1.18737	-0.145179	1.21783	0.0609364	-0.276515	0.852575	0.992481	-0.295664	1.18091	0.364605	-0.307911	1.14076	0.29919	-0.251414	1.15163	0.243262	-0.324455	0.980468	0.794232	-0.149438	1.08954	0.565282	-0.220377	1.23808	0.0727808	-0.37151	0.839193	1.30828	-0.084065	0.77892	1.32339	-0.12879	0.771019	1.25011	-0.0714651
10	0.325	0.93731	1.46537	-0.335211	1.05042	1.40355	-0.269847	1.04885	1.41448	-0.499689	1.04351	0.944442	-0.429772	0.605957	0.662348	-0.383429	1.08399	1.06415	-0.43324	1.03224	1.07309	-0.550898	1.09387	1.01412	-0.480853	0.940052	1.13363	-0.621216	0.87536	1.14074	-0.562453	0.475934	0.53217	-0.476615	0.871345	0.984178	-0.392038	0.824975	0.434741	-0.411909	0.77308	0.514428	-0.475739	0.676034	0.518611	-0.406235	0.98357	0.754523	-0.501923	1.01639	0.640118	-0.488612	0.937652	0.540786	-0.48061	0.481204	0.495363	-0.392831	0.999866	1.28711	-0.571085	0.929196	1.25226	-0.588406	0.987827	1.19556	-0.583014	0.945472	1.40624	-0.114484	1.00509	0.94928	-0.206138	0.991554	0.10349	-0.344684	0.861478	0.986095	-0.104186	0.800581	1.08287	-0.052445	0.818588	0.959108	-0.0549059	0.725842	1.18804	-0.0558139	0.712669	1.17281	-0.136559	1.17791	0.0608827	-0.277248	0.847428	0.988375	-0.297447	1.16459	0.361632	-0.30983	1.12244	0.299332	-0.251464	1.12676	0.242165	-0.325967	0.972891	0.790954	-0.149079	1.08395	0.561973	-0.218642	1.19822	0.0704427	-0.372732	0.847856	1.29542	-0.0801287	0.784695	1.31005	-0.12012	0.780712	1.23573	-0.065273
